<?xml version="1.0" encoding="utf-8"?>
<!-- Generator: Adobe Illustrator 19.2.1, SVG Export Plug-In . SVG Version: 6.00 Build 0)  -->
<svg version="1.1" id="Слой_1" xmlns="http://www.w3.org/2000/svg" xmlns:xlink="http://www.w3.org/1999/xlink" x="0px" y="0px"
	 viewBox="0 0 78.5 11.16667" style="enable-background:new 0 0 78.5 11.16667;" xml:space="preserve">
<style type="text/css">
	.st0{fill:#FFFFFF;}
</style>
<polygon class="st0" points="6.05309,8.08337 6.05309,8.76602 2.95061,8.76602 2.95061,2.71658 3.71979,2.71658 3.71979,8.08337 
	6.05309,8.08337 "/>
<path class="st0" d="M5.96667,5.7413c0-1.03125,0.20596-1.82344,0.61787-2.37654C6.99647,2.81166,7.54524,2.5351,8.23085,2.5351
	c0.67981,0,1.22721,0.27656,1.64198,0.82966c0.41487,0.5531,0.6222,1.34528,0.6222,2.37654
	c0,0.98517-0.19446,1.76586-0.58327,2.34207C9.52285,8.65946,8.96258,8.9475,8.23085,8.9475
	c-0.73743,0-1.30066-0.28805-1.68946-0.86414C6.15247,7.50715,5.96086,6.72646,5.96667,5.7413L5.96667,5.7413z M6.77036,5.7413
	c0,0.82396,0.13104,1.4505,0.39324,1.87973c0.26209,0.4292,0.61788,0.64383,1.06725,0.64383
	c0.44368,0,0.79799-0.21462,1.06293-0.64383C9.55882,7.1918,9.69135,6.56526,9.69135,5.7413
	c-0.0058-0.74891-0.13104-1.35677-0.37594-1.82344c-0.24479-0.4667-0.60638-0.69999-1.08456-0.69999
	c-0.48399,0-0.84831,0.23329-1.09321,0.69999C6.89275,4.38453,6.77036,4.99239,6.77036,5.7413L6.77036,5.7413z"/>
<path class="st0" d="M14.34075,6.76108h0.76908c-0.07492,0.73173-0.28953,1.27902-0.64384,1.642
	c-0.3543,0.36295-0.81382,0.54443-1.37842,0.54443c-0.70281,0-1.25454-0.27221-1.65496-0.81665
	c-0.4003-0.54444-0.60057-1.30634-0.60057-2.28583c0-1.00247,0.18-1.80467,0.54012-2.40671
	c0.36011-0.60205,0.92619-0.9032,1.69811-0.9032c0.57039,0,1.03128,0.16862,1.38274,0.50561
	c0.35146,0.33703,0.55025,0.85128,0.59636,1.54261h-0.7692c-0.0403-0.45519-0.16849-0.79653-0.38459-1.02411
	c-0.21597-0.22761-0.49116-0.34135-0.82531-0.34135c-0.44357,0-0.79504,0.21462-1.05427,0.64385
	c-0.25925,0.42922-0.38596,1.07876-0.38028,1.9487c-0.00568,0.73173,0.12251,1.32377,0.3846,1.77599
	s0.62653,0.67844,1.09321,0.67844c0.35146,0,0.63803-0.14699,0.85993-0.44084C14.19524,7.53028,14.31763,7.17584,14.34075,6.76108
	L14.34075,6.76108z"/>
<polygon class="st0" points="16.50986,5.53399 18.65883,2.71658 19.59503,2.71658 17.67651,5.20551 19.73325,8.76602 
	18.78555,8.76602 17.15802,5.83786 16.50986,6.67466 16.50986,8.76602 15.74068,8.76602 15.74068,2.71658 16.50986,2.71658 
	16.50986,5.53399 "/>
<path class="st0" d="M19.66414,6.8475h0.76919c-0.0288,0.41487,0.06614,0.75472,0.28508,1.01977
	c0.21893,0.26505,0.5359,0.39758,0.95067,0.39758c0.32835,0,0.58623-0.09802,0.7734-0.29386
	c0.18729-0.19594,0.28088-0.47248,0.28088-0.82963c-0.00569-0.28237-0.0748-0.50562-0.20732-0.6698
	c-0.13253-0.16417-0.35146-0.29523-0.65681-0.39314c-0.08642-0.02312-0.20312-0.05477-0.34999-0.09507
	c-0.14699-0.04042-0.24638-0.06923-0.29818-0.08641c-0.53579-0.14983-0.90159-0.34862-1.09753-0.59636
	c-0.19583-0.24774-0.29386-0.59053-0.29386-1.02842c0-0.54727,0.16566-0.97367,0.49697-1.27902
	c0.33131-0.30535,0.77055-0.45803,1.31785-0.45803c0.5589,0,0.98949,0.16715,1.292,0.50131
	c0.30251,0.33415,0.46235,0.75186,0.47966,1.25306h-0.76919c-0.01719-0.31687-0.11374-0.57462-0.28941-0.77341
	c-0.17579-0.19879-0.4192-0.29819-0.73025-0.29819c-0.30535,0-0.5474,0.09222-0.72592,0.27657
	c-0.17863,0.18432-0.26801,0.42921-0.26801,0.73457c-0.00569,0.26505,0.06342,0.47237,0.20744,0.6222
	c0.14402,0.14982,0.44072,0.27939,0.8901,0.38892c0.69143,0.17851,1.16528,0.40759,1.42168,0.68698s0.38459,0.67844,0.38459,1.19692
	c-0.0058,0.56459-0.16281,1.00966-0.471,1.33515C22.74783,8.7847,22.27399,8.9475,21.63448,8.9475
	c-0.58759-0.0058-1.06441-0.17864-1.43022-0.51848C19.83845,8.08906,19.65834,7.56192,19.66414,6.8475L19.66414,6.8475z"/>
<path class="st0" d="M29.19633,6.12157h0.66536c-0.0345,0.32266-0.08208,0.59057-0.14254,0.80368
	c-0.06045,0.21325-0.14266,0.41773-0.24627,0.61356l0.79503,1.22721h-0.82099l-0.38027-0.59624
	c-0.18432,0.25924-0.3946,0.45372-0.63086,0.58326c-0.23624,0.12969-0.50414,0.19446-0.80367,0.19446
	c-0.48969,0-0.86563-0.17283-1.12783-0.51848C26.2422,8.08337,26.11115,7.65699,26.11115,7.15
	c0-0.40326,0.08209-0.75189,0.24627-1.04574c0.16417-0.29384,0.4652-0.57027,0.90308-0.82962
	c-0.15551-0.21894-0.2737-0.43925-0.35431-0.66103c-0.08073-0.22189-0.12103-0.43936-0.12103-0.6525
	c0-0.33996,0.09939-0.63233,0.29819-0.87723c0.19878-0.24477,0.4825-0.36729,0.85115-0.36729
	c0.34577,0,0.61219,0.11967,0.79947,0.35876c0.18718,0.23909,0.28373,0.52567,0.28953,0.85982
	c0,0.31114-0.0822,0.59634-0.24638,0.85558c-0.16418,0.25924-0.37879,0.47237-0.64384,0.63951l0.93336,1.4605
	c0.01151-0.05192,0.02164-0.09938,0.03029-0.14265C29.10559,6.70496,29.13871,6.49603,29.19633,6.12157L29.19633,6.12157z
	 M28.69503,7.56476l-1.11484-1.77154c-0.27074,0.20733-0.45802,0.40907-0.56163,0.6049
	c-0.10372,0.19594-0.15564,0.44357-0.15564,0.74324c0,0.33983,0.07777,0.61788,0.2334,0.83397
	c0.15553,0.21597,0.36001,0.32401,0.61355,0.32401c0.21314,0,0.39894-0.06044,0.55743-0.18148
	C28.42566,7.99684,28.56833,7.81251,28.69503,7.56476L28.69503,7.56476z M27.83955,4.94627
	c0.15552-0.10372,0.27643-0.23622,0.36296-0.39756c0.08641-0.16132,0.12956-0.3716,0.12956-0.63084
	c0-0.17854-0.04031-0.32836-0.12102-0.44939c-0.0806-0.12092-0.17568-0.18148-0.28509-0.18148
	c-0.12683,0.0058-0.23339,0.06776-0.31981,0.18581c-0.08641,0.11818-0.12957,0.27508-0.12957,0.471
	c0,0.14983,0.0288,0.30822,0.08642,0.47534C27.62061,4.58617,27.71272,4.76194,27.83955,4.94627L27.83955,4.94627z"/>
<path class="st0" d="M32.24689,6.8475h0.76918c-0.02879,0.41487,0.06615,0.75472,0.2851,1.01977
	c0.21893,0.26505,0.5359,0.39758,0.95066,0.39758c0.32835,0,0.58623-0.09802,0.7734-0.29386
	c0.18729-0.19594,0.28088-0.47248,0.28088-0.82963c-0.0057-0.28237-0.07481-0.50562-0.20733-0.6698
	c-0.13253-0.16417-0.35146-0.29523-0.65681-0.39314c-0.08642-0.02312-0.20311-0.05477-0.34999-0.09507
	C33.945,5.94293,33.84561,5.91413,33.7938,5.89694c-0.53579-0.14983-0.9016-0.34862-1.09754-0.59636
	c-0.19582-0.24774-0.29385-0.59053-0.29385-1.02842c0-0.54727,0.16566-0.97367,0.49696-1.27902
	c0.33131-0.30535,0.77055-0.45803,1.31785-0.45803c0.5589,0,0.98949,0.16715,1.292,0.50131
	c0.3025,0.33415,0.46235,0.75186,0.47966,1.25306h-0.7692c-0.01719-0.31687-0.11374-0.57462-0.28941-0.77341
	c-0.17579-0.19879-0.4192-0.29819-0.73025-0.29819c-0.30535,0-0.54741,0.09222-0.72593,0.27657
	c-0.17863,0.18432-0.26801,0.42921-0.26801,0.73457c-0.00568,0.26505,0.06342,0.47237,0.20745,0.6222
	c0.14402,0.14982,0.44072,0.27939,0.89009,0.38892c0.69143,0.17851,1.16528,0.40759,1.42168,0.68698
	c0.25639,0.27939,0.38459,0.67844,0.38459,1.19692c-0.00581,0.56459-0.16282,1.00966-0.47101,1.33515
	C35.33058,8.7847,34.85673,8.9475,34.21722,8.9475c-0.5876-0.0058-1.06441-0.17864-1.43022-0.51848
	C32.4212,8.08906,32.24108,7.56192,32.24689,6.8475L32.24689,6.8475z"/>
<polygon class="st0" points="37.65681,3.39936 36.17036,3.39936 36.17036,2.71658 39.91235,2.71658 39.91235,3.39936 
	38.42588,3.39936 38.42588,8.76602 37.65681,8.76602 37.65681,3.39936 "/>
<polygon class="st0" points="41.0963,5.30058 43.50735,5.30058 43.50735,5.98335 41.0963,5.98335 41.0963,8.08337 43.82717,8.08337 
	43.82717,8.76602 40.32711,8.76602 40.32711,2.71658 43.7494,2.71658 43.7494,3.39936 41.0963,3.39936 41.0963,5.30058 "/>
<polygon class="st0" points="45.04573,5.30058 47.45678,5.30058 47.45678,5.98335 45.04573,5.98335 45.04573,8.08337 
	47.77659,8.08337 47.77659,8.76602 44.27654,8.76602 44.27654,2.71658 47.69883,2.71658 47.69883,3.39936 45.04573,3.39936 
	45.04573,5.30058 "/>
<polygon class="st0" points="51.32844,8.08337 51.32844,8.76602 48.22596,8.76602 48.22596,2.71658 48.99516,2.71658 
	48.99516,8.08337 51.32844,8.08337 "/>
<polygon class="st0" points="55.86546,3.94095 54.98402,8.76602 54.05067,8.76602 52.82355,2.71658 53.67039,2.71658 
	54.55195,7.49851 55.43191,2.71658 56.29902,2.71658 57.17909,7.49851 58.06054,2.71658 58.9075,2.71658 57.68027,8.76602 
	56.74703,8.76602 55.86546,3.94095 "/>
<path class="st0" d="M59.6407,7.2018L59.21,8.76602h-0.79936l1.73557-6.04944h0.80653l1.73568,6.04944h-0.79947L61.45835,7.2018
	H59.6407L59.6407,7.2018z M59.8149,6.51916h1.46915l-0.73458-2.71358L59.8149,6.51916L59.8149,6.51916z"/>
<path class="st0" d="M62.96052,8.76602V2.71658h1.9791c0.56461,0.00582,0.99233,0.14415,1.28323,0.4149
	c0.291,0.27074,0.43936,0.69426,0.44516,1.27034c0,0.38028-0.08937,0.69565-0.26801,0.94636
	c-0.17853,0.25059-0.40611,0.41042-0.68266,0.47953v0.05193c0.27654,0.06911,0.47818,0.20448,0.60489,0.4061
	c0.12683,0.20166,0.19879,0.54741,0.2161,1.0371c0.0115,0.5934,0.02879,0.95351,0.0518,1.08023
	c0.02312,0.1267,0.06626,0.24773,0.12968,0.36295h-0.77773c-0.07492-0.12103-0.12387-0.24921-0.14698-0.38458
	c-0.023-0.13537-0.0345-0.43356-0.0345-0.89443c-0.0058-0.5416-0.08652-0.89158-0.24205-1.04994
	c-0.15553-0.15849-0.38311-0.23774-0.68266-0.23774h-1.10619v2.5667H62.96052L62.96052,8.76602z M63.72971,3.39936v2.11731h1.17529
	c0.30536,0,0.54012-0.09654,0.70429-0.28952s0.24924-0.45951,0.25491-0.79937c-0.00568-0.33416-0.08778-0.58769-0.24626-0.76051
	c-0.15848-0.17283-0.42774-0.26211-0.80801-0.26791H63.72971L63.72971,3.39936z"/>
<polygon class="st0" points="68.18031,5.30058 70.59137,5.30058 70.59137,5.98335 68.18031,5.98335 68.18031,8.08337 
	70.91118,8.08337 70.91118,8.76602 67.41113,8.76602 67.41113,2.71658 70.83342,2.71658 70.83342,3.39936 68.18031,3.39936 
	68.18031,5.30058 "/>
<path class="st0" d="M71.02355,6.8475h0.7692c-0.02881,0.41487,0.06614,0.75472,0.28507,1.01977
	c0.21896,0.26505,0.5359,0.39758,0.95068,0.39758c0.32835,0,0.58622-0.09802,0.77339-0.29386
	c0.18729-0.19594,0.28088-0.47248,0.28088-0.82963c-0.0057-0.28237-0.07481-0.50562-0.20733-0.6698
	c-0.13253-0.16417-0.35147-0.29523-0.65682-0.39314c-0.08641-0.02312-0.20311-0.05477-0.34998-0.09507
	c-0.14698-0.04042-0.24638-0.06923-0.29817-0.08641c-0.5358-0.14983-0.9016-0.34862-1.09754-0.59636
	c-0.19583-0.24774-0.29385-0.59053-0.29385-1.02842c0-0.54727,0.16566-0.97367,0.49696-1.27902
	c0.33131-0.30535,0.77056-0.45803,1.31784-0.45803c0.55891,0,0.98949,0.16715,1.292,0.50131
	c0.30251,0.33415,0.46236,0.75186,0.47967,1.25306h-0.76919c-0.01719-0.31687-0.11375-0.57462-0.28942-0.77341
	c-0.17579-0.19879-0.4192-0.29819-0.73025-0.29819c-0.30536,0-0.5474,0.09222-0.72591,0.27657
	c-0.17863,0.18432-0.26802,0.42921-0.26802,0.73457c-0.00569,0.26505,0.06342,0.47237,0.20744,0.6222
	c0.14404,0.14982,0.44073,0.27939,0.89011,0.38892c0.69143,0.17851,1.16528,0.40759,1.42168,0.68698
	c0.25639,0.27939,0.38459,0.67844,0.38459,1.19692c-0.0058,0.56459-0.1628,1.00966-0.47101,1.33515
	C74.10725,8.7847,73.6334,8.9475,72.99388,8.9475c-0.58759-0.0058-1.06441-0.17864-1.43021-0.51848
	C71.19787,8.08906,71.01775,7.56192,71.02355,6.8475L71.02355,6.8475z"/>
</svg>
