<?xml version="1.0" encoding="utf-8"?>
<!-- Generator: Adobe Illustrator 19.2.1, SVG Export Plug-In . SVG Version: 6.00 Build 0)  -->
<svg version="1.1" id="Слой_1" xmlns="http://www.w3.org/2000/svg" xmlns:xlink="http://www.w3.org/1999/xlink" x="0px" y="0px"
	 viewBox="0 0 78.5 58.71658" style="enable-background:new 0 0 78.5 58.71658;" xml:space="preserve">
<style type="text/css">
	.st0{fill-rule:evenodd;clip-rule:evenodd;fill:#FFFFFF;}
</style>
<path class="st0" d="M75.02877,3.45899L58.90158,40.44953h15.93229v14.89521H45.99332l-5.04595-12.1469L51.72614,18.3542h-8.01579
	c-0.49286-4.58633-2.48438-8.55192-6.03805-11.76905c-1.49966-1.35347-3.17398-2.37314-4.95953-3.12616H75.02877L75.02877,3.45899z"
	/>
<path class="st0" d="M2.60062,55.34473V3.45899h19.81146c6.03349,0,10.70429,1.49226,14.02627,4.48965
	c3.69714,3.34772,5.55259,7.59008,5.55259,12.72802c0,5.25474-2.29675,9.66618-6.87658,13.27326l8.88744,21.39481H31.90453
	l-5.81001-15.53608l-3.5941-9.59718c3.71637-1.04916,6.43711-4.45846,6.43711-8.51139c0-4.8787-3.95273-8.83689-8.83142-8.83689
	c-4.88507,0-8.84144,3.95819-8.84144,8.83689c0,4.10996,2.80521,7.56618,6.60902,8.55089l-3.57394,9.55768L8.48975,55.34473H2.60062
	L2.60062,55.34473z"/>
</svg>
